<svg xmlns="http://www.w3.org/2000/svg" viewBox="0 0 900 300" width="900" height="300">
  <defs>
    <style>
      @import url('https://fonts.googleapis.com/css2?family=Share+Tech+Mono&amp;display=swap');
      .mono { font-family: 'Share Tech Mono', 'Courier New', monospace; }
      .cursor-blink { animation: blink 1.1s step-end infinite; }
      @keyframes blink { 0%,100%{opacity:1} 50%{opacity:0} }
      .scan-drift { animation: scan 7s linear infinite; }
      @keyframes scan {
        0%  { transform:translateY(-300px); opacity:0; }
        10% { opacity:0.03; }
        90% { opacity:0.03; }
        100%{ transform:translateY(300px); opacity:0; }
      }
      .glitch-1 { animation: glitch1 9s infinite; }
      @keyframes glitch1 {
        0%,93%,100%{ transform:translate(0,0); opacity:1; }
        95%        { transform:translate(-3px,1px); opacity:0.8; }
        97%        { transform:translate(2px,-1px); opacity:0.9; }
      }
      .pulse-line { animation: pulse 3s ease-in-out infinite; }
      @keyframes pulse { 0%,100%{opacity:0.45} 50%{opacity:0.9} }
    </style>
  </defs>
  <rect width="900" height="300" fill="#000000"/>
  <g opacity="0.04" stroke="#00ccff" stroke-width="0.5">
    <line x1="75"  y1="0" x2="75"  y2="300"/><line x1="150" y1="0" x2="150" y2="300"/>
    <line x1="225" y1="0" x2="225" y2="300"/><line x1="300" y1="0" x2="300" y2="300"/>
    <line x1="375" y1="0" x2="375" y2="300"/><line x1="450" y1="0" x2="450" y2="300"/>
    <line x1="525" y1="0" x2="525" y2="300"/><line x1="600" y1="0" x2="600" y2="300"/>
    <line x1="675" y1="0" x2="675" y2="300"/><line x1="750" y1="0" x2="750" y2="300"/>
    <line x1="825" y1="0" x2="825" y2="300"/>
    <line x1="0" y1="75"  x2="900" y2="75"/><line x1="0" y1="150" x2="900" y2="150"/>
    <line x1="0" y1="225" x2="900" y2="225"/>
  </g>
  <rect class="scan-drift" x="0" y="0" width="900" height="40" fill="#00ffff" opacity="0"/>
  <rect x="0" y="0" width="900" height="28" fill="#00ffff" opacity="0.055"/>
  <rect x="0" y="0" width="900" height="1.5" fill="#00ffff" opacity="0.9"/>
  <rect class="pulse-line" x="0" y="1.5" width="900" height="0.5" fill="#00ffff"/>
  <rect x="0" y="28" width="900" height="0.75" fill="#00ffff" opacity="0.3"/>
  <text class="mono" x="40" y="19" font-size="10" fill="#00ffff" opacity="0.7" letter-spacing="2">a.k.a m. umut aydin</text>
  <rect x="20" y="36" width="24" height="2" fill="#00ffff" opacity="0.85"/>
  <rect x="20" y="36" width="2" height="18" fill="#00ffff" opacity="0.85"/>
  <rect x="856" y="36" width="24" height="2" fill="#00ffff" opacity="0.85"/>
  <rect x="878" y="36" width="2" height="18" fill="#00ffff" opacity="0.85"/>
  <rect x="20" y="260" width="24" height="2" fill="#00ffff" opacity="0.85"/>
  <rect x="20" y="244" width="2" height="18" fill="#00ffff" opacity="0.85"/>
  <rect x="856" y="260" width="24" height="2" fill="#00ffff" opacity="0.85"/>
  <rect x="878" y="244" width="2" height="18" fill="#00ffff" opacity="0.85"/>
  <rect x="0" y="270" width="900" height="30" fill="#00ffff" opacity="0.04"/>
  <rect x="0" y="270" width="900" height="0.75" fill="#00ffff" opacity="0.3"/>
  <rect x="0" y="298" width="900" height="1.5" fill="#00ffff" opacity="0.9"/>
  <text class="mono" x="40" y="289" font-size="9" fill="#00ffff" opacity="0.45" letter-spacing="2">github.com/avenkoze</text>
  <text class="mono" x="660" y="289" font-size="9" fill="#00ffff" opacity="0.22" letter-spacing="2">&#xBA54;&#xC774;&#xCEE4; · &#xBE4C;&#xB354; · &#xAC1C;&#xBC1C;&#xC790;</text>
  <text class="mono glitch-1" x="40" y="175" font-size="72" font-weight="700" fill="#00ffff" opacity="0.12" letter-spacing="4">AVENKOZE</text>
  <text class="mono" x="40" y="175" font-size="72" font-weight="700" fill="#ffffff" letter-spacing="4">AVENKOZE</text>
  <rect x="40" y="183" width="432" height="2" fill="#00ffff" opacity="0.85"/>
  <rect x="40" y="186" width="210" height="0.5" fill="#00ffff" opacity="0.35"/>
  <text class="mono" x="42" y="208" font-size="12" fill="#00ccff" opacity="0.85" letter-spacing="3">making things that work</text>
  <text class="mono cursor-blink" x="282" y="208" font-size="12" fill="#00ffff" letter-spacing="3">&#x25AE;</text>
  <text class="mono" x="42" y="230" font-size="11" fill="#00ffff" opacity="0.38" letter-spacing="2">&#xBA54;&#xC774;&#xCEE4; · &#xBE4C;&#xB354; · &#xAC1C;&#xBC1C;&#xC790;</text>
  <rect x="596" y="46" width="268" height="216" fill="#00ffff" opacity="0.025"/>
  <rect x="596" y="46" width="268" height="1" fill="#00ffff" opacity="0.3"/>
  <rect x="596" y="46" width="1" height="216" fill="#00ffff" opacity="0.3"/>
  <rect x="864" y="46" width="1" height="216" fill="#00ffff" opacity="0.18"/>
  <rect x="596" y="262" width="268" height="1" fill="#00ffff" opacity="0.18"/>
  <rect x="716" y="58" width="0.5" height="194" fill="#00ffff" opacity="0.14"/>
  <text class="mono" x="606" y="64" font-size="8" fill="#00ffff" opacity="0.4" letter-spacing="2">&#x25B8; PROFILE</text>
  <text class="mono" x="606" y="86"  font-size="9" fill="#445566" letter-spacing="1">HANDLE</text>
  <text class="mono" x="726" y="86"  font-size="9" fill="#aaddff" letter-spacing="1">avenkoze</text>
  <text class="mono" x="606" y="108" font-size="9" fill="#445566" letter-spacing="1">STACK</text>
  <text class="mono" x="726" y="108" font-size="9" fill="#aaddff" letter-spacing="1">RN · Node · PG</text>
  <text class="mono" x="606" y="130" font-size="9" fill="#445566" letter-spacing="1">FOCUS</text>
  <text class="mono" x="726" y="130" font-size="9" fill="#aaddff" letter-spacing="1">apps · systems</text>
  <text class="mono" x="606" y="152" font-size="9" fill="#445566" letter-spacing="1">LANG</text>
  <text class="mono" x="726" y="152" font-size="9" fill="#aaddff" letter-spacing="1">TR · EN · KR</text>
  <text class="mono" x="606" y="174" font-size="9" fill="#445566" letter-spacing="1">STATUS</text>
  <text class="mono" x="726" y="174" font-size="9" fill="#00ff88" letter-spacing="1">● active</text>
  <text class="mono" x="606" y="196" font-size="9" fill="#445566" letter-spacing="1">OPEN TO</text>
  <text class="mono" x="726" y="196" font-size="9" fill="#aaddff" letter-spacing="1">collab · build</text>
</svg>
