<svg xmlns="http://www.w3.org/2000/svg" viewBox="0 0 900 130" width="900" height="130">
  <defs><style>@import url('https://fonts.googleapis.com/css2?family=Share+Tech+Mono&amp;display=swap');.mono{font-family:'Share Tech Mono','Courier New',monospace;}</style></defs>
  <rect width="900" height="130" fill="#000000"/>
  <rect x="0" y="0" width="3" height="130" fill="#00ffff" opacity="0.85"/>
  <rect x="0" y="0"   width="900" height="1" fill="#00ffff" opacity="0.25"/>
  <rect x="0" y="129" width="900" height="1" fill="#00ffff" opacity="0.12"/>
  <text class="mono" x="28" y="22" font-size="8.5" fill="#00ffff" opacity="0.45" letter-spacing="3">&#x25B8; STACK</text>
  <rect x="28" y="27" width="44" height="0.5" fill="#00ffff" opacity="0.18"/>
  <text class="mono" x="28" y="50" font-size="8" fill="#445566" letter-spacing="2">FRONTEND</text>
  <rect x="110" y="38" width="88" height="18" fill="#00ffff" opacity="0.06" rx="1"/>
  <rect x="110" y="38" width="88" height="18" fill="none" stroke="#00ffff" stroke-width="0.5" stroke-opacity="0.25" rx="1"/>
  <text class="mono" x="120" y="51" font-size="9.5" fill="#aaddff" letter-spacing="1">React Native</text>
  <rect x="208" y="38" width="56" height="18" fill="#00ffff" opacity="0.06" rx="1"/>
  <rect x="208" y="38" width="56" height="18" fill="none" stroke="#00ffff" stroke-width="0.5" stroke-opacity="0.25" rx="1"/>
  <text class="mono" x="218" y="51" font-size="9.5" fill="#aaddff" letter-spacing="1">React</text>
  <rect x="274" y="38" width="44" height="18" fill="#00ffff" opacity="0.06" rx="1"/>
  <rect x="274" y="38" width="44" height="18" fill="none" stroke="#00ffff" stroke-width="0.5" stroke-opacity="0.25" rx="1"/>
  <text class="mono" x="284" y="51" font-size="9.5" fill="#aaddff" letter-spacing="1">Expo</text>
  <text class="mono" x="28" y="82" font-size="8" fill="#445566" letter-spacing="2">BACKEND</text>
  <rect x="110" y="70" width="56" height="18" fill="#00ffff" opacity="0.06" rx="1"/>
  <rect x="110" y="70" width="56" height="18" fill="none" stroke="#00ffff" stroke-width="0.5" stroke-opacity="0.25" rx="1"/>
  <text class="mono" x="120" y="83" font-size="9.5" fill="#aaddff" letter-spacing="1">Node</text>
  <rect x="176" y="70" width="68" height="18" fill="#00ffff" opacity="0.06" rx="1"/>
  <rect x="176" y="70" width="68" height="18" fill="none" stroke="#00ffff" stroke-width="0.5" stroke-opacity="0.25" rx="1"/>
  <text class="mono" x="186" y="83" font-size="9.5" fill="#aaddff" letter-spacing="1">FastAPI</text>
  <rect x="254" y="70" width="84" height="18" fill="#00ffff" opacity="0.06" rx="1"/>
  <rect x="254" y="70" width="84" height="18" fill="none" stroke="#00ffff" stroke-width="0.5" stroke-opacity="0.25" rx="1"/>
  <text class="mono" x="264" y="83" font-size="9.5" fill="#aaddff" letter-spacing="1">PostgreSQL</text>
  <rect x="348" y="70" width="68" height="18" fill="#00ffff" opacity="0.06" rx="1"/>
  <rect x="348" y="70" width="68" height="18" fill="none" stroke="#00ffff" stroke-width="0.5" stroke-opacity="0.25" rx="1"/>
  <text class="mono" x="358" y="83" font-size="9.5" fill="#aaddff" letter-spacing="1">Express</text>
  <text class="mono" x="28" y="114" font-size="8" fill="#445566" letter-spacing="2">INFRA</text>
  <rect x="110" y="102" width="36" height="18" fill="#00ffff" opacity="0.06" rx="1"/>
  <rect x="110" y="102" width="36" height="18" fill="none" stroke="#00ffff" stroke-width="0.5" stroke-opacity="0.25" rx="1"/>
  <text class="mono" x="120" y="115" font-size="9.5" fill="#aaddff" letter-spacing="1">VPS</text>
  <rect x="156" y="102" width="36" height="18" fill="#00ffff" opacity="0.06" rx="1"/>
  <rect x="156" y="102" width="36" height="18" fill="none" stroke="#00ffff" stroke-width="0.5" stroke-opacity="0.25" rx="1"/>
  <text class="mono" x="166" y="115" font-size="9.5" fill="#aaddff" letter-spacing="1">n8n</text>
  <rect x="202" y="102" width="52" height="18" fill="#00ffff" opacity="0.06" rx="1"/>
  <rect x="202" y="102" width="52" height="18" fill="none" stroke="#00ffff" stroke-width="0.5" stroke-opacity="0.25" rx="1"/>
  <text class="mono" x="212" y="115" font-size="9.5" fill="#aaddff" letter-spacing="1">Docker</text>
  <rect x="264" y="102" width="44" height="18" fill="#00ffff" opacity="0.06" rx="1"/>
  <rect x="264" y="102" width="44" height="18" fill="none" stroke="#00ffff" stroke-width="0.5" stroke-opacity="0.25" rx="1"/>
  <text class="mono" x="274" y="115" font-size="9.5" fill="#aaddff" letter-spacing="1">Linux</text>
  <rect x="318" y="102" width="36" height="18" fill="#00ffff" opacity="0.06" rx="1"/>
  <rect x="318" y="102" width="36" height="18" fill="none" stroke="#00ffff" stroke-width="0.5" stroke-opacity="0.25" rx="1"/>
  <text class="mono" x="328" y="115" font-size="9.5" fill="#aaddff" letter-spacing="1">Git</text>
</svg>
